<?xml version="1.0" encoding="utf-8"?>
<!-- Generator: Adobe Illustrator 16.0.0, SVG Export Plug-In . SVG Version: 6.00 Build 0)  -->
<!DOCTYPE svg PUBLIC "-//W3C//DTD SVG 1.1//EN" "http://www.w3.org/Graphics/SVG/1.1/DTD/svg11.dtd">
<svg version="1.1" id="Layer_1" xmlns="http://www.w3.org/2000/svg" xmlns:xlink="http://www.w3.org/1999/xlink" x="0px" y="0px"
	 width="200px" height="200px" viewBox="0 0 200 200" enable-background="new 0 0 200 200" xml:space="preserve">
<path d="M18.616,44.265c-0.185,0.985,0.609,1.826,1.774,1.876c1.165,0.05,2.257-0.708,2.442-1.693s-0.609-1.826-1.774-1.876
	C19.894,42.521,18.8,43.279,18.616,44.265z"/>
<path d="M164.355,10.5c-0.546,0.325-0.404,1.145,0.316,1.83c0.72,0.685,1.748,0.979,2.293,0.652
	c0.547-0.324,0.404-1.144-0.315-1.829C165.929,10.467,164.902,10.175,164.355,10.5z"/>
<path d="M147.46,39.26c0.382,0.396,1.126,0.104,1.664-0.655c0.538-0.76,0.665-1.695,0.284-2.091
	c-0.381-0.397-1.127-0.104-1.664,0.656C147.207,37.928,147.079,38.863,147.46,39.26z"/>
<path d="M187.164,26.744c0.432,0.856,1.469,1.046,2.316,0.424c0.851-0.623,1.188-1.822,0.756-2.679s-1.47-1.047-2.318-0.424
	C187.07,24.687,186.732,25.886,187.164,26.744z"/>
<path d="M77.232,124.495c-0.582,0.447-0.705,1.307-0.275,1.916c0.43,0.608,1.251,0.738,1.833,0.289
	c0.582-0.449,0.706-1.309,0.275-1.916C78.634,124.175,77.814,124.044,77.232,124.495z"/>
<path d="M148.043,73.739c-0.191-0.807-1.01-1.402-1.827-1.325c-0.816,0.075-1.323,0.79-1.13,1.598
	c0.191,0.808,1.01,1.402,1.826,1.327C147.729,75.264,148.236,74.548,148.043,73.739z"/>
<path d="M92.551,93.783c0.155-0.768-0.334-1.502-1.092-1.641c-0.757-0.141-1.496,0.367-1.651,1.135
	c-0.155,0.768,0.333,1.502,1.091,1.643C91.656,95.058,92.396,94.549,92.551,93.783z"/>
<path d="M122.151,144.492c-0.51-0.424-1.479-0.119-2.168,0.678c-0.688,0.796-0.834,1.783-0.324,2.206
	c0.51,0.421,1.48,0.116,2.17-0.679C122.516,145.9,122.659,144.912,122.151,144.492z"/>
<path d="M23.634,89.295c0.673,0.025,1.476-0.493,1.791-1.158c0.316-0.667,0.026-1.227-0.647-1.253
	c-0.673-0.025-1.476,0.493-1.791,1.159C22.671,88.709,22.96,89.269,23.634,89.295z"/>
<path d="M129.873,56.871c0.035,0.944,0.695,1.832,1.477,1.982c0.779,0.151,1.385-0.49,1.35-1.433s-0.696-1.83-1.477-1.981
	C130.441,55.288,129.838,55.93,129.873,56.871z"/>
<path d="M185.364,91.433c0.444-0.93,0.05-2.054-0.884-2.511c-0.932-0.458-2.049-0.074-2.494,0.856
	c-0.445,0.93-0.05,2.054,0.883,2.512C183.801,92.748,184.918,92.364,185.364,91.433z"/>
<path d="M126.857,97.098c0.498-0.242,0.912-0.883,0.926-1.431c0.014-0.549-0.377-0.798-0.875-0.557
	c-0.498,0.243-0.912,0.884-0.926,1.432C125.969,97.092,126.361,97.339,126.857,97.098z"/>
<path d="M27.368,122.864c0.151-0.966-0.497-1.889-1.449-2.062c-0.952-0.172-1.845,0.47-1.997,1.436
	c-0.151,0.967,0.497,1.889,1.45,2.062C26.323,124.471,27.217,123.83,27.368,122.864z"/>
<path d="M186.946,147.57c-1.116,0.07-2.006,0.91-1.989,1.876c0.016,0.965,0.932,1.691,2.047,1.62
	c1.115-0.067,2.008-0.909,1.991-1.876C188.979,148.225,188.061,147.501,186.946,147.57z"/>
<path d="M106.027,30.086c0.836,0.42,1.906,0.031,2.393-0.869c0.488-0.9,0.209-1.97-0.627-2.39c-0.834-0.419-1.908-0.03-2.396,0.871
	C104.91,28.598,105.191,29.666,106.027,30.086z"/>
<path d="M170.741,108.914c0.531,0.541,1.524,0.404,2.213-0.305c0.693-0.71,0.822-1.726,0.291-2.267s-1.521-0.404-2.215,0.306
	C170.341,107.358,170.212,108.373,170.741,108.914z"/>
<path d="M39.916,17.49c-0.757,0.06-1.31,0.724-1.235,1.484c0.074,0.761,0.748,1.329,1.504,1.27c0.756-0.06,1.31-0.725,1.235-1.485
	C41.346,17.997,40.672,17.43,39.916,17.49z"/>
<path d="M59.275,60.4c0.129,1.067,1.057,1.778,2.074,1.591c1.018-0.188,1.739-1.204,1.61-2.271c-0.128-1.067-1.057-1.78-2.075-1.593
	C59.867,58.315,59.146,59.333,59.275,60.4z"/>
<path d="M18.503,76.014c-0.266-0.636-1.07-0.558-1.797,0.173s-1.102,1.84-0.835,2.476c0.265,0.636,1.07,0.559,1.797-0.173
	C18.396,77.759,18.77,76.65,18.503,76.014z"/>
<path d="M38.602,135.182c0.135,0.525,0.825,0.789,1.542,0.588c0.717-0.199,1.189-0.787,1.055-1.312
	c-0.135-0.523-0.825-0.787-1.543-0.587C38.94,134.07,38.467,134.657,38.602,135.182z"/>
<path d="M80.143,68.832c0.4-0.08,0.606-0.436,0.462-0.797c-0.145-0.361-0.586-0.589-0.986-0.509s-0.606,0.436-0.462,0.797
	C79.302,68.684,79.743,68.912,80.143,68.832z"/>
<path d="M75.057,182.504c0.636-0.135,0.912-0.679,0.619-1.219c-0.293-0.539-1.046-0.868-1.681-0.734
	c-0.635,0.133-0.912,0.678-0.618,1.217S74.422,182.637,75.057,182.504z"/>
<path d="M26.381,124.671c0.142,0.729,0.848,1.153,1.582,0.946c0.732-0.207,1.212-0.968,1.071-1.696s-0.848-1.153-1.582-0.947
	C26.721,123.179,26.241,123.94,26.381,124.671z"/>
<path d="M27.068,170.568c0.662,0.037,1.075-0.295,0.922-0.742c-0.153-0.447-0.813-0.842-1.476-0.879
	c-0.663-0.037-1.077,0.295-0.923,0.742C25.743,170.139,26.404,170.531,27.068,170.568z"/>
<path d="M82.175,172.759c-0.776,0.088-1.15,0.776-0.834,1.539c0.315,0.764,1.2,1.312,1.977,1.224
	c0.775-0.088,1.147-0.777,0.833-1.541C83.834,173.218,82.951,172.671,82.175,172.759z"/>
<path d="M8.5,186.394c0.565,0.646,1.599,0.705,2.31,0.135c0.711-0.571,0.831-1.557,0.265-2.202c-0.565-0.646-1.6-0.705-2.311-0.134
	C8.054,184.763,7.935,185.748,8.5,186.394z"/>
<path d="M91.563,78.464c-0.442,0.937-0.03,2.016,0.923,2.411c0.951,0.396,2.083-0.042,2.526-0.979
	c0.443-0.937,0.029-2.016-0.923-2.411C93.137,77.089,92.006,77.527,91.563,78.464z"/>
<path d="M131.372,186.763c-1.054-0.147-2.117,0.513-2.379,1.474c-0.261,0.96,0.385,1.856,1.438,2.005
	c1.052,0.146,2.117-0.512,2.377-1.473S132.423,186.909,131.372,186.763z"/>
<path d="M141.894,168.264c-1.088,0.117-1.781,1.047-1.552,2.076c0.229,1.028,1.296,1.769,2.384,1.649
	c1.086-0.117,1.779-1.047,1.551-2.076C144.047,168.885,142.979,168.146,141.894,168.264z"/>
<path d="M114.62,107.779c-0.981-0.369-1.879-0.013-2,0.799c-0.123,0.81,0.571,1.763,1.557,2.132c0.985,0.368,1.88,0.012,2.003-0.798
	C116.302,109.101,115.605,108.148,114.62,107.779z"/>
<path d="M77.326,52.614c0.587-0.808,0.39-1.955-0.439-2.564c-0.831-0.609-1.979-0.449-2.566,0.358
	c-0.587,0.808-0.391,1.956,0.439,2.565C75.589,53.581,76.738,53.421,77.326,52.614z"/>
<path d="M166.582,185.679c-0.938,0.487-1.204,1.358-0.592,1.948c0.614,0.586,1.875,0.666,2.813,0.178
	c0.941-0.488,1.207-1.359,0.594-1.947C168.785,185.271,167.522,185.191,166.582,185.679z"/>
<path d="M114.255,174.38c-0.714-0.049-1.228,0.355-1.146,0.904c0.079,0.551,0.722,1.035,1.436,1.084
	c0.715,0.051,1.228-0.354,1.147-0.902C115.611,174.915,114.968,174.431,114.255,174.38z"/>
<path d="M31.709,189.877c-0.269-0.665-0.804-1.031-1.196-0.82c-0.394,0.212-0.494,0.923-0.226,1.589
	c0.269,0.666,0.806,1.033,1.197,0.821C31.878,191.255,31.978,190.543,31.709,189.877z"/>
<path d="M169.112,132.562c-1.004,0.393-1.613,1.42-1.361,2.291c0.254,0.871,1.271,1.26,2.275,0.865
	c1.002-0.395,1.611-1.418,1.359-2.29C171.134,132.558,170.115,132.17,169.112,132.562z"/>
<path d="M193.702,90.517c0.721-0.701,1.091-1.807,0.831-2.471c-0.263-0.664-1.058-0.635-1.776,0.064
	c-0.719,0.701-1.092,1.808-0.83,2.471C192.187,91.247,192.981,91.215,193.702,90.517z"/>
</svg>
