<?xml version="1.0" encoding="utf-8"?>
<!-- Generator: Adobe Illustrator 16.0.0, SVG Export Plug-In . SVG Version: 6.00 Build 0)  -->
<!DOCTYPE svg PUBLIC "-//W3C//DTD SVG 1.1//EN" "http://www.w3.org/Graphics/SVG/1.1/DTD/svg11.dtd">
<svg version="1.1" id="Layer_1" xmlns="http://www.w3.org/2000/svg" xmlns:xlink="http://www.w3.org/1999/xlink" x="0px" y="0px"
	 width="200px" height="200px" viewBox="0 0 200 200" enable-background="new 0 0 200 200" xml:space="preserve">
<path d="M22.887,30.218c-0.269,1.431,0.884,2.652,2.577,2.725c1.692,0.073,3.277-1.028,3.546-2.458
	c0.269-1.431-0.884-2.652-2.577-2.725C24.743,27.686,23.153,28.786,22.887,30.218z"/>
<path d="M215.64,5.039c-0.793,0.472-0.587,1.663,0.46,2.658c1.045,0.995,2.538,1.422,3.33,0.947c0.794-0.47,0.587-1.662-0.458-2.656
	C217.925,4.991,216.434,4.567,215.64,5.039z"/>
<path d="M182.598,32.346c0.555,0.575,1.635,0.151,2.417-0.952c0.781-1.104,0.966-2.462,0.412-3.037
	c-0.553-0.577-1.637-0.151-2.417,0.952C182.23,30.412,182.044,31.77,182.598,32.346z"/>
<path d="M250.964,58.896c0.627,1.243,2.134,1.519,3.364,0.616c1.235-0.904,1.726-2.646,1.099-3.891s-2.135-1.521-3.367-0.615
	C250.828,55.908,250.338,57.65,250.964,58.896z"/>
<path d="M108.398,182.493c-0.846,0.65-1.024,1.898-0.4,2.783c0.625,0.884,1.818,1.072,2.662,0.42c0.846-0.652,1.025-1.9,0.4-2.783
	C110.435,182.028,109.243,181.838,108.398,182.493z"/>
<path d="M204.183,75.466c-0.278-1.172-1.467-2.037-2.653-1.925c-1.186,0.109-1.922,1.147-1.642,2.321
	c0.278,1.173,1.467,2.036,2.652,1.927C203.728,77.681,204.464,76.641,204.183,75.466z"/>
<path d="M109.833,132.766c0.226-1.115-0.485-2.182-1.586-2.383c-1.1-0.205-2.173,0.532-2.398,1.647
	c-0.225,1.116,0.484,2.182,1.585,2.387C108.533,134.618,109.608,133.88,109.833,132.766z"/>
<path d="M157.869,188.609c-0.74-0.615-2.148-0.173-3.148,0.984c-1,1.156-1.212,2.59-0.471,3.204c0.74,0.611,2.149,0.169,3.151-0.986
	C158.398,190.654,158.606,189.219,157.869,188.609z"/>
<path d="M28.671,119.262c0.977,0.036,2.144-0.716,2.601-1.682c0.459-0.969,0.038-1.782-0.939-1.819
	c-0.978-0.037-2.144,0.715-2.601,1.683C27.272,118.41,27.692,119.224,28.671,119.262z"/>
<path d="M163.84,110.563c0.052,1.371,1.01,2.661,2.145,2.879c1.132,0.219,2.012-0.712,1.96-2.081
	c-0.051-1.37-1.011-2.658-2.145-2.878C164.666,108.265,163.789,109.197,163.84,110.563z"/>
<path d="M252.932,114.891c0.646-1.352,0.072-2.983-1.284-3.647c-1.353-0.665-2.976-0.107-3.622,1.243s-0.072,2.983,1.282,3.648
	C250.661,116.8,252.283,116.242,252.932,114.891z"/>
<path d="M172.383,163.974c0.724-0.353,1.324-1.282,1.343-2.078c0.021-0.797-0.547-1.159-1.271-0.809
	c-0.724,0.354-1.325,1.283-1.345,2.079C171.091,163.965,171.661,164.323,172.383,163.974z"/>
<path d="M60.381,162.984c0.219-1.402-0.722-2.743-2.105-2.994c-1.383-0.249-2.679,0.683-2.9,2.085
	c-0.219,1.404,0.722,2.743,2.106,2.996C58.863,165.317,60.161,164.388,60.381,162.984z"/>
<path d="M253.152,209.701c-1.621,0.102-2.913,1.321-2.889,2.725c0.022,1.401,1.354,2.456,2.973,2.353
	c1.62-0.098,2.916-1.32,2.892-2.725C256.104,210.651,254.771,209.601,253.152,209.701z"/>
<path d="M149.983,59.624c1.214,0.61,2.769,0.045,3.475-1.262c0.709-1.307,0.304-2.861-0.91-3.471
	c-1.212-0.608-2.771-0.044-3.479,1.265C148.36,57.463,148.77,59.014,149.983,59.624z"/>
<path d="M226.081,181.771c0.771,0.785,2.215,0.587,3.214-0.442c1.008-1.031,1.194-2.507,0.423-3.292
	c-0.771-0.786-2.21-0.588-3.217,0.443C225.5,179.511,225.312,180.984,226.081,181.771z"/>
<path d="M83.458,12.174c-1.099,0.087-1.902,1.052-1.793,2.155c0.108,1.105,1.086,1.93,2.184,1.845
	c1.099-0.087,1.903-1.053,1.794-2.157C85.535,12.91,84.557,12.087,83.458,12.174z"/>
<path d="M103.958,73.311c0.188,1.55,1.535,2.582,3.012,2.311c1.479-0.273,2.526-1.749,2.339-3.298
	c-0.186-1.549-1.535-2.585-3.014-2.314C104.817,70.282,103.771,71.761,103.958,73.311z"/>
<path d="M10.135,79.439c-0.386-0.923-1.554-0.811-2.61,0.251c-1.056,1.062-1.601,2.673-1.212,3.596
	c0.384,0.924,1.554,0.812,2.61-0.251C9.978,81.974,10.521,80.364,10.135,79.439z"/>
<path d="M65.699,219.098c0.196,0.763,1.198,1.146,2.239,0.854c1.042-0.289,1.728-1.144,1.533-1.906
	c-0.196-0.76-1.198-1.144-2.241-0.853C66.19,217.483,65.503,218.336,65.699,219.098z"/>
<path d="M80.844,106.455c0.581-0.116,0.88-0.634,0.671-1.157c-0.211-0.525-0.851-0.856-1.432-0.74
	c-0.581,0.116-0.88,0.634-0.671,1.158C79.623,106.24,80.263,106.571,80.844,106.455z"/>
<path d="M111.576,259.213c0.923-0.195,1.324-0.985,0.898-1.771c-0.426-0.782-1.52-1.261-2.441-1.066
	c-0.922,0.193-1.324,0.984-0.897,1.768S110.653,259.406,111.576,259.213z"/>
<path d="M8.333,198.282c0.206,1.06,1.231,1.675,2.297,1.374c1.063-0.301,1.761-1.405,1.556-2.463
	c-0.205-1.059-1.231-1.676-2.297-1.376C8.826,196.115,8.129,197.222,8.333,198.282z"/>
<path d="M31.86,228.427c0.962,0.054,1.562-0.428,1.339-1.078c-0.222-0.649-1.181-1.222-2.143-1.276
	c-0.963-0.054-1.564,0.429-1.341,1.078C29.937,227.803,30.896,228.373,31.86,228.427z"/>
<path d="M122.065,217.534c-1.126,0.128-1.67,1.128-1.211,2.235c0.458,1.109,1.743,1.906,2.871,1.777
	c1.126-0.128,1.666-1.129,1.21-2.238C124.476,218.201,123.192,217.406,122.065,217.534z"/>
<path d="M22.083,273.777c0.82,0.938,2.322,1.024,3.355,0.196c1.032-0.83,1.207-2.261,0.385-3.198
	c-0.821-0.938-2.324-1.024-3.356-0.194C21.436,271.409,21.263,272.84,22.083,273.777z"/>
<path d="M128.437,122.827c-0.642,1.361-0.044,2.928,1.34,3.502c1.382,0.575,3.025-0.061,3.669-1.422s0.042-2.928-1.341-3.502
	C130.722,120.83,129.079,121.467,128.437,122.827z"/>
<path d="M199.868,246.159c-1.53-0.215-3.075,0.744-3.455,2.14c-0.379,1.395,0.559,2.696,2.088,2.912
	c1.527,0.213,3.075-0.743,3.452-2.139S201.395,246.371,199.868,246.159z"/>
<path d="M183.41,233.87c-1.58,0.171-2.587,1.521-2.254,3.016c0.333,1.493,1.882,2.568,3.462,2.396
	c1.577-0.17,2.584-1.521,2.253-3.016C186.537,234.772,184.987,233.7,183.41,233.87z"/>
<path d="M192.273,183.49c-1.426-0.536-2.729-0.018-2.905,1.16c-0.179,1.176,0.83,2.561,2.261,3.097
	c1.432,0.534,2.73,0.017,2.909-1.159C194.716,185.409,193.704,184.026,192.273,183.49z"/>
<path d="M76.288,64.306c0.853-1.173,0.567-2.839-0.637-3.724c-1.207-0.884-2.875-0.652-3.727,0.52
	c-0.853,1.174-0.568,2.841,0.637,3.726C73.765,65.71,75.434,65.479,76.288,64.306z"/>
<path d="M233.614,266.459c-1.363,0.708-1.749,1.973-0.859,2.83c0.892,0.851,2.723,0.967,4.086,0.258
	c1.367-0.709,1.753-1.975,0.862-2.828C236.813,265.866,234.979,265.751,233.614,266.459z"/>
<path d="M194.24,228.436c-1.037-0.071-1.783,0.517-1.665,1.313c0.115,0.8,1.048,1.503,2.085,1.574
	c1.038,0.073,1.783-0.514,1.666-1.311C196.21,229.213,195.275,228.509,194.24,228.436z"/>
<path d="M60.161,256.829c-0.39-0.966-1.167-1.498-1.736-1.191c-0.573,0.308-0.718,1.34-0.329,2.308
	c0.391,0.967,1.171,1.5,1.739,1.192C60.405,258.83,60.55,257.796,60.161,256.829z"/>
<path d="M231.846,168.617c-1.458,0.569-2.344,2.062-1.978,3.327c0.369,1.265,1.847,1.829,3.305,1.257
	c1.455-0.573,2.341-2.06,1.975-3.326C234.781,168.609,233.302,168.047,231.846,168.617z"/>
<path d="M261.085,136.546c1.047-1.018,1.585-2.624,1.207-3.588c-0.381-0.965-1.535-0.923-2.579,0.093
	c-1.044,1.018-1.586,2.626-1.206,3.589C258.884,137.605,260.039,137.56,261.085,136.546z"/>
</svg>
