<?xml version="1.0" encoding="utf-8"?>
<!-- Generator: Adobe Illustrator 16.0.0, SVG Export Plug-In . SVG Version: 6.00 Build 0)  -->
<!DOCTYPE svg PUBLIC "-//W3C//DTD SVG 1.1//EN" "http://www.w3.org/Graphics/SVG/1.1/DTD/svg11.dtd">
<svg version="1.1" id="Layer_1" xmlns="http://www.w3.org/2000/svg" xmlns:xlink="http://www.w3.org/1999/xlink" x="0px" y="0px"
	 width="100px" height="100px" viewBox="0 0 100 100" enable-background="new 0 0 100 100" xml:space="preserve">
<polygon fill="#54B957" points="41.894,59.691 38.664,61.262 35.65,57.885 35.821,54.292 41.847,50.957 44.666,54.168 "/>
<polygon fill="#32A55A" points="50.968,16.228 54.05,16.057 55.408,20.45 54.146,23.759 49.87,22.995 48.137,21.359 "/>
<polygon fill="#68BE60" points="10.641,11.537 13.331,10.757 16.597,10.712 18.575,13.902 16.61,15.084 11.713,17.406 "/>
<polygon fill="#65BF70" points="42.289,29.595 42.238,25.518 39.668,21.656 45.966,22.44 50.644,27.235 48.261,30.745 "/>
<polygon fill="#62BD66" points="12.09,25.112 16.649,20.246 9.428,21.492 7.334,24.287 "/>
<polygon fill="#54B957" points="64.72,25.817 61.734,26.309 59.639,22.227 60.298,18.911 65.924,17.614 67.877,21.481 "/>
<polygon fill="#32A55A" points="18.08,95.08 15.714,96.61 12.059,93.418 11.136,89.991 15.004,88.736 17.347,89.373 "/>
<polygon fill="#68BE60" points="69.886,91.371 67.619,93.607 64.399,95.64 60.774,94.425 62.11,92.324 65.766,87.566 "/>
<polygon fill="#65BF70" points="40.252,81.514 35.988,82.335 33.083,85.258 31.076,79.751 34.013,74.856 38.774,76.213 "/>
<polygon fill="#62BD66" points="24.74,59.096 18.031,60.859 24.882,63.2 28.291,61.944 "/>
<polygon fill="#54B957" points="90.752,4.892 90.544,7.944 86.114,8.984 83.056,7.515 83.09,1.673 87.279,0.718 "/>
<polygon fill="#32A55A" points="91.427,56.138 89.64,58.882 84.818,57.571 82.628,54.622 86.015,51.379 88.582,50.812 "/>
<polygon fill="#68BE60" points="70.528,44.863 72.406,42.592 75.189,40.444 78.665,41.328 77.633,43.403 74.715,48.15 "/>
<polygon fill="#65BF70" points="62.54,14.043 64.571,17.287 68.389,18.76 63.279,22.124 57.423,21.239 57.494,16.907 "/>
<polygon fill="#62BD66" points="76.625,6.356 75.781,-0.173 72.139,6.232 72.958,9.572 "/>
<polygon fill="#54B957" points="40.705,72.282 38.031,70.558 39.233,65.618 42.053,63.294 47.348,66.231 46.186,70.89 "/>
<polygon fill="#32A55A" points="94.258,98.455 91.431,98.514 90.234,93.756 91.429,90.268 95.342,91.256 96.912,93.077 "/>
<polygon fill="#68BE60" points="86.685,23.052 87.784,20.516 89.867,18.047 93.785,18.716 93.489,20.979 92.232,26.2 "/>
<polygon fill="#65BF70" points="70.114,70.532 72.499,73.732 76.335,75.04 71.94,78.72 66.243,78.111 65.713,73.701 "/>
<polygon fill="#62BD66" points="68.544,59.544 73.452,64.359 72.092,56.577 69.281,54.377 "/>
<polygon fill="#54B957" points="35.876,88.665 34.956,86.602 37.913,84.449 40.728,84.394 42.764,88.227 39.956,90.242 "/>
<polygon fill="#32A55A" points="57.173,54.736 54.96,53.703 55.54,50.278 57.573,48.547 60.296,50.648 60.938,52.381 "/>
<polygon fill="#68BE60" points="30.325,36.771 29.155,38.569 27.332,40.307 24.785,39.776 25.366,38.163 27.09,34.448 "/>
<polygon fill="#65BF70" points="34.516,84.104 35.461,81.025 34.602,78.021 38.796,78.839 40.897,82.622 38.396,85.184 "/>
<polygon fill="#62BD66" points="30.923,70.544 25.924,72.53 31.565,73.521 34.058,72.251 "/>
<polygon fill="#54B957" points="38.176,94.391 39.755,95.973 38.157,99.15 35.85,100.297 32.647,97.483 34.175,94.494 "/>
<polygon fill="#32A55A" points="47.046,88.312 47.512,86.258 51.116,86.267 53.385,87.77 51.98,90.414 50.402,91.215 "/>
<polygon fill="#68BE60" points="56.937,78.48 55.337,80.235 53.066,81.805 50.523,80.759 51.47,79.099 54.055,75.35 "/>
<polygon fill="#65BF70" points="18.551,82.624 21.045,81.194 22.262,78.577 24.639,82.005 23.806,86.001 20.557,86.015 "/>
<polygon fill="#62BD66" points="52.754,65.09 51.142,70.031 55.759,66.407 56.319,63.771 "/>
<polygon fill="#54B957" points="26.177,45.58 28.36,45.049 29.845,48.176 29.328,50.83 25.208,52.124 23.827,49.158 "/>
<polygon fill="#32A55A" points="38.042,13.692 36.628,11.81 39.362,9.051 42.38,8.423 43.588,11.466 43.081,13.274 "/>
<polygon fill="#68BE60" points="24.747,6.633 22.598,6.804 20.098,6.415 18.981,4.041 20.627,3.508 24.651,2.595 "/>
<polygon fill="#65BF70" points="88.316,44.579 85.166,44.999 82.784,47.035 81.887,42.867 84.489,39.371 87.781,40.586 "/>
<polygon fill="#62BD66" points="67.944,4.037 67.854,9.861 71.021,4.505 70.8,1.496 "/>
<polygon fill="#54B957" points="73.691,15.626 74.55,17.686 71.669,19.669 68.958,19.604 67.051,15.764 69.786,13.909 "/>
<polygon fill="#32A55A" points="91.44,72.846 92.044,75.155 88.878,77.228 86.146,77.047 86.076,73.605 87.067,71.897 "/>
<polygon fill="#68BE60" points="88.763,38.717 90.899,38.404 93.408,38.727 94.618,41.414 93,42.118 89.021,43.386 "/>
<polygon fill="#65BF70" points="82.387,76.041 85.314,75.854 87.756,73.99 88.012,78.237 85.174,81.549 82.338,80.086 "/>
<polygon fill="#62BD66" points="90.198,45.032 85.342,45.557 89.799,48.313 92.311,47.762 "/>
<polygon fill="#54B957" points="8.364,32.15 8.636,33.802 6.354,34.866 4.502,34.433 3.784,31.311 5.947,30.319 "/>
<polygon fill="#32A55A" points="25.894,29.803 26.665,28.174 29.584,28.618 31.138,30.126 29.489,32.126 28.055,32.592 "/>
<polygon fill="#68BE60" points="27.045,18.76 25.059,18.04 22.96,16.666 22.811,14.051 24.473,14.237 28.404,15.048 "/>
<polygon fill="#65BF70" points="11.628,79.839 8.392,80.663 6.48,83.166 4.225,78.713 5.918,74.588 9.813,75.535 "/>
<polygon fill="#62BD66" points="21.736,48.435 24.706,45.378 20.374,46.505 18.979,48.23 "/>
<polygon fill="#54B957" points="28.636,80.977 26.845,82.554 23.199,80.472 21.864,77.814 25.04,74.574 28.47,76.561 "/>
<polygon fill="#32A55A" points="36.324,56.347 37.367,57.3 35.683,59.599 33.704,60.569 32.738,58.826 32.983,57.562 "/>
<polygon fill="#68BE60" points="45.097,77.469 43.557,76.777 42.008,75.595 42.211,73.651 43.551,73.92 46.673,74.832 "/>
<polygon fill="#65BF70" points="26.342,80.365 24.683,78.557 22.259,78.13 24.708,75.274 28.222,75.045 28.828,77.838 "/>
<polygon fill="#62BD66" points="22.552,93.385 20.259,95.927 23.941,95.271 24.99,93.812 "/>
<polygon fill="#54B957" points="65.98,46.221 67.223,44.849 69.775,46.469 70.719,48.641 68.516,51.443 66.11,49.897 "/>
<polygon fill="#32A55A" points="92.911,33.239 92.132,31.752 94.398,29.959 96.609,29.744 97.105,32.064 96.533,33.341 "/>
<polygon fill="#68BE60" points="66.368,31.166 65.258,29.814 64.379,27.986 65.511,26.222 66.639,27.083 69.126,29.363 "/>
<polygon fill="#65BF70" points="59.602,45.87 59.191,44.079 57.977,42.988 60.114,41.824 62.108,42.821 61.666,44.946 "/>
<polygon fill="#62BD66" points="83.954,30.141 78.654,30.296 83.256,33.105 86.021,32.768 "/>
<polygon fill="#54B957" points="75.73,93.031 77.307,92.686 78.8,94.856 78.729,96.682 75.791,97.532 74.395,95.475 "/>
<polygon fill="#32A55A" points="68.115,67.388 68.52,65.198 72.098,65.199 74.393,66.795 73.071,69.616 71.526,70.474 "/>
<polygon fill="#68BE60" points="87.722,55.795 89.072,53.992 91.071,52.396 93.573,53.546 92.832,55.268 90.737,59.141 "/>
<polygon fill="#65BF70" points="19.878,37.428 17.479,36.525 14.989,37.196 15.998,33.562 19.218,31.829 21.072,34.077 "/>
<polygon fill="#62BD66" points="85.798,89.217 88.924,90.483 86.814,87.487 85.132,86.99 "/>
<polygon fill="#54B957" points="16.225,51.712 16.245,52.862 14.463,52.943 13.158,52.164 12.971,49.937 14.656,49.87 "/>
<polygon fill="#32A55A" points="28.246,77.939 26.785,78.471 25.349,76.609 25.37,74.874 27.576,74.605 28.704,75.119 "/>
<polygon fill="#68BE60" points="8.203,63.385 7.055,64.207 5.526,64.81 4.14,63.764 4.892,62.896 6.859,61.004 "/>
<polygon fill="#65BF70" points="53.73,52.362 51.831,52.496 50.511,53.775 49.683,50.874 51.036,48.607 53.132,49.601 "/>
<polygon fill="#62BD66" points="6.172,44.556 7.601,48.006 8.272,43.746 7.362,42.058 "/>
<polygon fill="#54B957" points="63.924,95.119 62.714,96.202 60.285,94.973 59.408,93.294 61.559,91.088 63.844,92.263 "/>
<polygon fill="#32A55A" points="58.785,69.558 60.496,70.016 60.538,72.896 59.317,74.647 57.102,73.413 56.414,72.116 "/>
<polygon fill="#68BE60" points="34.606,86.467 35.033,87.796 35.149,89.354 33.777,90.103 33.193,89.096 32.012,86.623 "/>
<polygon fill="#65BF70" points="29.825,56.629 27.508,56.229 25.458,57.098 25.551,54.076 28.017,52.267 30.145,53.803 "/>
<polygon fill="#62BD66" points="23.348,69.806 25.181,72.103 25.33,68.879 24.224,67.788 "/>
<polygon fill="#54B957" points="39.133,31.223 40.604,31.441 40.788,34.053 39.85,35.785 37.007,35.577 36.846,33.107 "/>
<polygon fill="#32A55A" points="78.492,16.914 77.48,16.43 77.862,14.851 78.882,14.059 80.099,15.035 80.347,15.836 "/>
<polygon fill="#68BE60" points="39.062,46.381 40.07,45.869 41.425,45.586 42.689,46.631 42.037,47.238 40.322,48.512 "/>
<polygon fill="#65BF70" points="44.931,55.853 46.418,54.42 46.779,52.254 49.099,54.548 49.264,57.714 46.98,58.169 "/>
<polygon fill="#62BD66" points="57.294,11.739 60.958,12.613 57.917,9.777 55.994,9.503 "/>
<polygon fill="#54B957" points="72.533,82.997 71.393,83.27 70.294,81.728 70.33,80.414 72.454,79.753 73.48,81.213 "/>
<polygon fill="#32A55A" points="78.06,61.316 77.232,59.717 79.643,57.44 81.993,56.954 82.522,59.521 81.911,61.031 "/>
<polygon fill="#68BE60" points="68.94,33.083 68.716,34.371 68.113,35.833 66.584,36.356 66.529,35.349 66.611,32.9 "/>
<polygon fill="#65BF70" points="73.902,54.545 71.7,53.844 69.532,54.473 70.171,51.387 72.916,49.843 74.725,51.69 "/>
<polygon fill="#62BD66" points="93.375,66.188 94.889,69.475 95.863,65.986 94.877,64.327 "/>
<polygon fill="#32A55A" points="8.581,4.259 10.292,4.717 10.334,7.598 9.113,9.349 6.897,8.115 6.21,6.818 "/>
<polygon fill="#32A55A" points="10.997,61.733 9.662,60.717 10.957,58.133 12.869,57.003 14.3,58.896 14.322,60.294 "/>
<polygon fill="#62BD66" points="51.262,35.375 47.231,39.58 53.197,37.812 55.084,35.456 "/>
</svg>
