<?xml version="1.0" encoding="utf-8"?>
<!-- Generator: Adobe Illustrator 16.0.0, SVG Export Plug-In . SVG Version: 6.00 Build 0)  -->
<!DOCTYPE svg PUBLIC "-//W3C//DTD SVG 1.1//EN" "http://www.w3.org/Graphics/SVG/1.1/DTD/svg11.dtd">
<svg version="1.1" id="Layer_1" xmlns="http://www.w3.org/2000/svg" xmlns:xlink="http://www.w3.org/1999/xlink" x="0px" y="0px"
	 width="100px" height="100px" viewBox="0 0 100 100" enable-background="new 0 0 100 100" xml:space="preserve">
<polyline fill="#9D9D9D" points="87.996,-18.38 91.159,0.333 74.34,16.782 45.228,21.143 42.066,2.432 "/>
<polygon fill="#9D9D9D" points="-12.769,36.99 -5.849,15.496 7.826,12.5 18.341,21.58 19.241,38.721 5.566,41.717 "/>
<polygon fill="#AEADAE" points="-1.234,42.74 10.854,48.967 21.012,65.958 8.651,68.079 -8.752,72.132 -9.019,56.254 "/>
<polygon fill="#8E8E8E" points="12.685,5.719 5.988,17.591 -0.116,24.014 -14.165,12.526 -8.539,-1.746 2.157,-10.71 "/>
<polygon fill="#AEADAE" points="41.899,27.609 46.22,15.082 60.738,4.694 64.183,17.602 70.013,35.795 55.345,35.882 "/>
<polygon fill="#AEADAE" points="43.332,61.474 43.29,75.08 32.918,92.007 25.495,82.063 14.108,68.554 27.949,60.9 "/>
<polygon fill="#8E8E8E" points="16.17,64.033 29.151,65.027 37.016,67.714 31.44,84.507 16.663,85.405 4.941,79.774 "/>
<polygon fill="#9D9D9D" points="31.304,37.295 36.422,24.742 48.222,19.663 59.609,27.659 59.162,40.891 43.071,58.416 "/>
<polygon fill="#AEADAE" points="35.411,50.053 24.476,48.762 13.401,39.168 26.315,36.488 44.499,31.648 44.834,47.523 "/>
<polygon fill="#8E8E8E" points="49.426,18.715 45.215,30.068 30.729,26.682 22.737,11.352 31.755,10.488 46.539,1.263 "/>
<polygon fill="#9D9D9D" points="42.787,78.463 21.833,66.125 21.878,53.007 33.866,46.162 52.075,50.245 52.032,63.364 "/>
<polygon fill="#AEADAE" points="53.604,57.577 45.854,69.237 28.611,77.716 28.788,64.849 28.068,46.6 42.604,48.107 "/>
<polygon fill="#8E8E8E" points="54.521,30.363 61.615,41.233 64.261,49.261 47.516,56.529 37.829,45.563 35.187,32.468 "/>
<polygon fill="#9D9D9D" points="65.631,54.66 69.377,67.568 62.432,77.963 47.31,77.537 39.067,66.565 41.615,43.788 "/>
<polygon fill="#AEADAE" points="74.071,18.154 83.921,18.81 93.291,27.598 81.354,30.943 64.463,36.695 65.315,21.154 "/>
<polygon fill="#9D9D9D" points="27.673,21.333 25.135,-2.951 34.969,-10.426 46.812,-4.488 53.978,12.815 44.147,20.291 "/>
<polygon fill="#AEADAE" points="57.674,57.143 47.817,48.936 42.055,30.812 53.953,31.096 70.939,30.483 67.779,45.692 "/>
<polygon fill="#8E8E8E" points="76.326,26.21 76.468,13.292 78.815,5.024 97.498,6.934 99.548,21.213 94.274,33.874 "/>
<polygon fill="#9D9D9D" points="3.387,63.025 2.669,49.449 11.418,40.294 25.49,43.425 30.841,55.872 23.533,78.191 "/>
<polygon fill="#8E8E8E" points="18.174,39.926 24.693,28.362 38.78,30.975 43.903,45.865 34.551,47.207 17.678,57.207 "/>
<polygon fill="#9D9D9D" points="47.437,26.603 63.913,40.968 60.181,52.237 46.841,55.959 30.656,49.18 34.389,37.915 "/>
<polygon fill="#AEADAE" points="73.72,47.569 66.188,59.097 48.19,66.704 47.47,53.419 45.396,34.521 61.179,37.052 "/>
<polygon fill="#8E8E8E" points="70.787,95.907 84.507,94.45 93.621,95.743 94.339,114.37 79.497,118.149 65.29,114.52 "/>
<polygon fill="#9D9D9D" points="81.9,54.94 75.825,66.114 62.702,69.248 50.505,60.043 51.481,47.561 69.771,33.232 "/>
<polygon fill="#AEADAE" points="95.433,35.577 95.798,24.546 104.717,13.209 108.611,26.157 115.195,44.363 98.866,45.015 "/>
<polygon fill="#8E8E8E" points="96.174,20.278 107.643,12.719 117.876,24.556 114.254,43.088 105.839,38.371 86.665,37.596 "/>
<polygon fill="#9D9D9D" points="108.63,40.732 106.188,64.33 94.736,68.66 84.021,59.793 80.362,41.5 91.814,37.167 "/>
<polygon fill="#AEADAE" points="82.678,65.252 95.635,62.354 113.565,69.271 105.405,78.987 94.549,93.519 84.834,81.058 "/>
<polygon fill="#9D9D9D" points="107.054,15.075 95.709,22.29 81.911,20.006 75.264,7.582 82.536,-2.661 106.844,-7.953 "/>
<polygon fill="#8E8E8E" points="10.174,112.187 -7.566,107.54 -6.033,86.183 14.662,72.697 18.085,85.62 35.211,105.811 "/>
<polygon fill="#AEADAE" points="-15.052,13.44 -7.869,2.132 10.159,-6.469 11.474,5.748 14.412,23.034 -1.802,22.072 "/>
<polygon fill="#8E8E8E" points="6.563,6.068 -6.973,6.356 -15.501,4.482 -12.38,-12.597 2.712,-14.923 15.673,-10.526 "/>
<polygon fill="#8E8E8E" points="76.159,30.843 89.137,33.79 88.781,49.034 74.312,59.061 71.384,49.929 58.299,35.894 "/>
<polygon fill="#9D9D9D" points="-11.741,82.269 -4.822,60.776 8.854,57.779 19.37,66.858 20.269,84.001 6.594,86.997 "/>
<polygon fill="#AEADAE" points="-0.207,88.021 11.881,94.244 22.039,111.239 9.68,113.357 -7.724,117.409 -7.99,101.534 "/>
<polygon fill="#8E8E8E" points="13.712,50.997 7.016,62.871 0.912,69.294 -13.137,57.804 -7.511,43.534 3.186,34.568 "/>
<polygon fill="#9D9D9D" points="47.26,21.647 30.188,35.461 17.579,30.545 13.976,17.474 22.427,3.001 35.036,7.917 "/>
<polygon fill="#AEADAE" points="42.927,72.887 47.249,60.36 61.769,49.973 65.209,62.882 71.042,81.076 56.371,81.161 "/>
<polygon fill="#8E8E8E" points="17.956,23.252 30.714,26.161 38.233,30.077 30.993,46.651 16.261,45.438 5.225,37.915 "/>
<polygon fill="#9D9D9D" points="26.942,47.076 22.276,34.362 28.57,22.915 43.86,21.52 52.934,31.713 51.926,55.258 "/>
<polygon fill="#AEADAE" points="46.124,23.67 56.083,26.473 64.602,36.383 52.036,36.656 34.148,37.945 36.846,24.357 "/>
<polygon fill="#9D9D9D" points="32.332,82.574 37.45,70.022 49.252,64.941 60.639,72.937 60.188,86.171 44.099,103.697 "/>
<polygon fill="#AEADAE" points="36.438,95.331 25.504,94.042 14.43,84.448 27.343,81.769 45.527,76.928 45.865,92.803 "/>
<polygon fill="#8E8E8E" points="50.452,63.993 46.244,75.348 31.757,71.961 23.765,56.631 32.783,55.768 47.569,46.541 "/>
<polyline fill="#9D9D9D" points="20.979,100 34.894,91.439 53.104,95.522 53.058,108.643 "/>
<polygon fill="#AEADAE" points="54.631,102.854 46.884,114.516 29.639,122.994 29.816,110.127 29.096,91.88 43.632,93.386 "/>
<polygon fill="#8E8E8E" points="55.551,75.643 62.646,86.511 65.286,94.539 48.545,101.809 38.856,90.843 36.215,77.749 "/>
<polygon fill="#AEADAE" points="75.101,63.432 84.946,64.089 94.317,72.877 82.38,76.222 65.492,81.974 66.345,66.432 "/>
<polygon fill="#8E8E8E" points="25.063,41.329 26.891,27.566 40.5,25.223 50.332,38.208 42.37,42.817 30.666,58.652 "/>
<polygon fill="#9D9D9D" points="28.702,66.613 26.163,42.328 35.997,34.852 47.838,40.791 55.007,58.096 45.176,65.569 "/>
<polygon fill="#AEADAE" points="58.704,102.423 48.847,94.216 43.083,76.09 54.982,76.374 71.969,75.764 68.809,90.972 "/>
<polygon fill="#8E8E8E" points="77.352,71.488 77.494,58.571 79.844,50.303 98.528,52.212 100.574,66.492 95.301,79.154 "/>
<polygon fill="#9D9D9D" points="39.854,4.062 52.448,9.065 57.124,20.61 48.467,31.76 34.981,31.327 17.783,15.59 "/>
<polygon fill="#AEADAE" points="67.119,14.131 76.407,10.173 90.482,12.537 81.875,20.444 70.354,32.395 61.157,20.343 "/>
<polygon fill="#8E8E8E" points="63.188,15.385 69.54,27.732 58.395,36.663 41.78,30.946 46.408,23.039 47.928,3.902 "/>
<polygon fill="#9D9D9D" points="85.582,54.793 71.664,35.393 76.394,23.504 89.329,21.992 103.793,32.829 99.064,44.716 "/>
<polygon fill="#8E8E8E" points="19.201,85.204 25.72,73.64 39.808,76.254 44.931,91.145 35.579,92.487 18.706,102.486 "/>
<polygon fill="#9D9D9D" points="48.464,71.882 64.942,86.249 61.207,97.515 47.867,101.239 31.684,94.458 35.417,83.194 "/>
<polygon fill="#AEADAE" points="74.746,92.85 67.215,104.375 49.22,111.983 48.496,98.697 46.426,79.8 62.209,82.332 "/>
<polygon fill="#8E8E8E" points="69.507,71.71 85.794,69.776 96.582,71.173 97.154,93.243 79.498,97.95 62.717,93.855 "/>
<polygon fill="#9D9D9D" points="82.927,100.22 76.851,111.395 63.731,114.526 51.535,105.323 52.512,92.839 70.797,78.512 "/>
<polygon fill="#AEADAE" points="96.459,80.855 96.827,69.827 105.743,58.489 109.642,71.435 116.225,89.643 99.892,90.293 "/>
<polygon fill="#8E8E8E" points="97.204,65.559 108.669,58 118.902,69.834 115.28,88.369 106.865,83.649 87.691,82.876 "/>
<polygon fill="#9D9D9D" points="109.66,86.011 107.213,109.608 95.763,113.94 85.05,105.07 81.393,86.778 92.841,82.446 "/>
<polygon fill="#9D9D9D" points="110.849,60.354 99.505,67.568 85.703,65.285 79.06,52.861 86.332,42.618 110.64,37.327 "/>
<polygon fill="#AEADAE" points="-14.023,58.72 -6.841,47.411 11.187,38.811 12.502,51.026 15.44,68.314 -0.773,67.352 "/>
<polygon fill="#8E8E8E" points="7.591,51.347 -5.945,51.635 -14.474,49.762 -11.352,32.683 3.74,30.357 16.701,34.753 "/>
<polygon fill="#AEADAE" points="2.884,10.229 3.086,20.556 -4.971,30.922 -9.401,18.675 -16.697,1.421 -0.919,1.285 "/>
<polygon fill="#9D9D9D" points="-0.731,-13.327 15.329,-0.096 11.296,12.646 -2.122,18.575 -18.097,13.524 -14.064,0.785 "/>
<polygon fill="#8E8E8E" points="18.315,20.228 14.158,9.634 13.572,2.156 31.353,-2.056 37.969,8.97 37.329,20.943 "/>
<polygon fill="#9D9D9D" points="-3.367,15.459 -7.888,2.808 -1.751,-7.945 13.124,-8.373 21.937,2.096 20.928,24.938 "/>
<polygon fill="#AEADAE" points="21.49,8.25 13.501,2.064 10.204,-10.903 22.072,-6.992 39.395,-2.344 30.481,10.644 "/>
</svg>
